<svg xmlns="http://www.w3.org/2000/svg" width="67" height="54" fill="none"><g fill="#B8B7B7" clip-path="url(#a)"><path d="M55.213 53.5H12.395v-7.887h42.817zm-42.194-.628h41.569v-6.638H13.019z"/><path d="M50.231 53.5H17.387v-7.887H50.23zm-32.22-.62h31.626v-6.646H18.012z"/><path d="M35.628 46.074h-3.75v-2.208a1.872 1.872 0 0 1 2.24-1.83 1.88 1.88 0 0 1 1.37 1.116c.093.227.14.47.14.714zm-3.086-.621h2.5v-1.587a1.22 1.22 0 0 0-.386-.877 1.24 1.24 0 0 0-.903-.334c-.33.002-.647.134-.881.366a1.25 1.25 0 0 0-.368.876z"/><path d="M47.051 46.073h-6.17v-4.951H26.771v4.959h-6.17v-5.618h26.45zm-5.561-.62h4.937v-4.331H41.49zm-20.24 0h4.898v-4.331h-4.93z"/><path d="M35.628 40.96h-3.75v-2.207c0-.494.198-.968.55-1.317a1.88 1.88 0 0 1 2.65 0c.352.35.55.823.55 1.317zm-3.086-.62h2.5v-1.587a1.22 1.22 0 0 0-.77-1.151 1.261 1.261 0 0 0-1.362.276 1.25 1.25 0 0 0-.368.875z"/><path d="M46.05 41.122H21.598v-5.618h5.8v4.852h12.843v-4.852h5.809zm-5.168-.636h4.55v-4.361h-4.55zm-18.683 0h4.551v-4.361H22.2z"/><path d="M35.628 35.85h-3.75v-2.208c0-.494.198-.968.55-1.317a1.88 1.88 0 0 1 2.65 0c.352.35.55.823.55 1.317zm-3.086-.622h2.5v-1.586a1.22 1.22 0 0 0-.77-1.152 1.261 1.261 0 0 0-1.362.276 1.25 1.25 0 0 0-.368.876z"/><path d="M45.177 36.148H40.24v-.246H27.366v.245H22.43v-5.61h5.978v4.714h10.799v-4.714H45.2zm-4.297-.621h3.68v-4.37h-4.752v4.124h1.072zm-17.818 0h3.687v-.246h1.018v-4.123h-4.712z"/><path d="M35.628 30.737h-3.75V28.53c0-.495.198-.968.55-1.318a1.88 1.88 0 0 1 2.65 0c.352.35.55.823.55 1.317zm-3.086-.621h2.5v-1.587a1.22 1.22 0 0 0-.805-1.127 1.2 1.2 0 0 0-.484-.076c-.33.002-.647.134-.881.366a1.25 1.25 0 0 0-.368.876z"/><path d="M44.107 31.158h-4.921v-.422h-10.8v.422h-4.874v-5.58h5.708v4.545h9.14v-4.545h5.747zm-4.297-.62h3.672v-4.37h-4.497v3.948h.825zm-15.673 0h3.633v-.422h.771v-3.917h-4.404z"/><path d="M42.587 26.222H38.36v-.583h-9.14v.583h-4.197v-5.603h5.122v4.407h7.259v-4.369h5.183zm-3.602-.62h2.977V21.24h-3.926v3.786h.949zm-13.337 0h2.947v-.576h.925V21.24h-3.856zm15.813 20.47H26.15v-5.587H41.46zm-5.831-.62h5.206v-4.33H26.774v4.338h5.107v-1.594c0-.494.197-.968.549-1.317a1.88 1.88 0 0 1 2.65 0c.352.349.55.823.55 1.317zm-3.086 0h2.5v-1.586a1.22 1.22 0 0 0-.803-1.135 1.2 1.2 0 0 0-.486-.076c-.33.002-.647.133-.881.365a1.25 1.25 0 0 0-.368.876z"/><path d="M35.628 46.073H31.88v-2.208c0-.494.197-.967.549-1.317a1.88 1.88 0 0 1 2.65 0c.352.35.55.823.55 1.317zm-3.085-.621h2.5v-1.587a1.22 1.22 0 0 0-.387-.876 1.24 1.24 0 0 0-.902-.335c-.33.002-.647.134-.881.366a1.25 1.25 0 0 0-.369.876zm-6.395-5.066H41.46v.728H26.148z"/><path d="M26.148 45.452H41.46v.667H26.148zm14.733-4.445H26.742V35.28h14.14zm-5.253-.652h4.629v-4.453h-12.89v4.453h4.513v-1.602c0-.494.197-.967.549-1.317a1.88 1.88 0 0 1 2.65 0c.352.35.55.823.55 1.317zm-3.085-.046h2.5v-1.556a1.22 1.22 0 0 0-.77-1.151 1.261 1.261 0 0 0-1.362.276 1.25 1.25 0 0 0-.368.875z"/><path d="M35.63 40.961h-3.75v-2.207c0-.494.198-.968.55-1.317a1.88 1.88 0 0 1 2.65 0c.352.349.55.823.55 1.317zm-3.086-.62h2.5v-1.587a1.22 1.22 0 0 0-.362-.883 1.24 1.24 0 0 0-.888-.359 1.26 1.26 0 0 0-.881.366 1.25 1.25 0 0 0-.369.876zm7.266-4.462H27.77v-5.732h12.04zm-4.18-.628h3.556v-4.484h-10.8v4.484h3.472v-1.61c0-.493.197-.967.549-1.316a1.88 1.88 0 0 1 2.65 0c.352.349.55.822.55 1.316zm-3.086 0h2.5v-1.61a1.22 1.22 0 0 0-.362-.882 1.23 1.23 0 0 0-.888-.36c-.331.003-.648.134-.881.367a1.25 1.25 0 0 0-.369.876z"/><path d="M35.629 35.849h-3.75V33.64c0-.494.198-.967.55-1.317a1.88 1.88 0 0 1 2.65 0c.352.35.55.823.55 1.317zm-3.086-.621h2.5V33.64a1.22 1.22 0 0 0-.362-.882 1.24 1.24 0 0 0-.888-.36c-.331.003-.648.134-.882.367a1.25 1.25 0 0 0-.368.875zm6.44-4.484h-10.39v-5.718h10.39zm-3.354-.62h2.73V25.64h-9.14v4.483h2.66V28.53c0-.494.198-.968.55-1.317a1.88 1.88 0 0 1 2.65 0c.352.35.55.823.55 1.317zm-3.086 0h2.5v-1.595a1.22 1.22 0 0 0-.39-.872 1.24 1.24 0 0 0-.899-.331c-.33.002-.647.133-.881.366a1.25 1.25 0 0 0-.368.875z"/><path d="M35.628 30.737h-3.75V28.53c0-.495.198-.968.55-1.318a1.88 1.88 0 0 1 2.65 0c.352.35.55.823.55 1.317zm-3.086-.621h2.5v-1.587a1.22 1.22 0 0 0-.805-1.127 1.2 1.2 0 0 0-.484-.076c-.33.002-.647.134-.881.366a1.25 1.25 0 0 0-.368.876zm3.086 15.958h-3.75v-2.208c0-.494.198-.968.55-1.317a1.88 1.88 0 0 1 2.65 0c.352.35.55.823.55 1.317zm-3.086-.621h2.5v-1.587a1.22 1.22 0 0 0-.386-.876 1.24 1.24 0 0 0-.903-.335c-.33.002-.647.134-.881.366a1.25 1.25 0 0 0-.368.876zm3.086-4.492h-3.75v-2.207c0-.494.198-.968.55-1.317a1.88 1.88 0 0 1 2.65 0c.352.35.55.823.55 1.317zm-3.086-.62h2.5v-1.587a1.22 1.22 0 0 0-.77-1.151 1.261 1.261 0 0 0-1.362.276 1.25 1.25 0 0 0-.368.875zm3.086-4.492h-3.75v-2.207c0-.494.198-.968.55-1.317a1.88 1.88 0 0 1 2.65 0c.352.349.55.823.55 1.317zm-3.086-.62h2.5v-1.587a1.22 1.22 0 0 0-.77-1.152 1.261 1.261 0 0 0-1.362.276 1.25 1.25 0 0 0-.368.876z"/><path d="M35.628 30.737h-3.75v-2.208c0-.494.198-.967.55-1.317a1.88 1.88 0 0 1 2.65 0c.352.35.55.823.55 1.317zm-3.086-.621h2.5v-1.587a1.22 1.22 0 0 0-.805-1.128 1.2 1.2 0 0 0-.484-.075c-.33.002-.647.133-.881.366a1.25 1.25 0 0 0-.368.876zm3.086-4.5h-3.75v-2.199c0-.494.198-.968.55-1.317a1.88 1.88 0 0 1 2.65 0c.352.35.55.823.55 1.317zm-3.086-.628h2.5v-1.57a1.22 1.22 0 0 0-.77-1.152 1.261 1.261 0 0 0-1.362.276 1.25 1.25 0 0 0-.368.875z"/><path d="M35.63 25.624H31.88v-.62l.309-.016h3.44zm12.095 27.761H19.887v-5.794h27.838zm-27.214-.62H47.1v-4.6H20.51zm28.31-43.19H18.613V3.037H48.82zM19.238 8.93h28.949V3.658h-28.95zm1.565 6.768h4.49v.62h-4.49zm21.398-.092h4.49v.62h-4.49zM19.277 20.75h4.844v.62h-4.844zm-1.951 9.787h4.165v.621h-4.165zm-.047 4.913h3.232v.621H17.28zm29.289.146H49.8v.62h-3.232zM16.485 40.5h3.054v.621h-3.054zm31.086-.046h3.054v.621h-3.054zm-1.373-9.795h4.08v.62h-4.08zm-1.165-4.882h3.895v.62h-3.895zm-1.674-5.181h4.844v.62h-4.844zM16.215 41.933h2.16v.621h-2.16zm2.962-.06h.987v.62h-.987zm-2.407-5.151h2.16v.62h-2.16zm2.962-.062h.988v.621h-.988zm-2.345-4.721h2.16v.62h-2.16zm2.962-.061h.988v.62h-.988zm-2.036-4.967h2.16v.62h-2.16zm2.962-.061h.987v.62h-.987zm.802-4.783h.987v.62h-.987zm-1.728-4.844h2.16v.62h-2.16zm2.962-.061h.988v.62h-.988zm19.562-.085h2.16v.621h-2.16zm2.962-.06h.987v.62h-.987zm-1.682 5.042h2.16v.621h-2.16zm2.962-.06h.988v.62h-.988zm-1.928 5.096h2.16v.62h-2.16zm2.962-.061h.987v.62h-.987zm-2.221 5.097h2.16v.62h-2.16zm2.962-.062h.987v.621h-.988zm-2.423 5.044h2.16v.62h-2.16zm2.962-.062h.988v.621h-.988zm-2.028 4.905h2.16v.621H47.4zm2.962-.06h.987v.62h-.987zM25.402 11.007h.624v3.227h-.624zm-1.32 0h.625v3.227h-.624zm-1.31 0h.624v3.227h-.625zm-1.32 0h.625v3.227h-.625zm-1.311 0h.625v3.227h-.625zm26.728.238h.624v3.226h-.625zm-1.312 0h.625v3.226h-.625zm-1.319 0h.625v3.226h-.625zm-1.311 0h.625v3.226h-.625zm-1.32 0h.626v3.226h-.625z"/><path d="M18.613.5h.625v2.851h-.625zm29.574.169h.624v2.85h-.624zM0 52.872h67v.62H0zm23.18-4.017h.593v3.22h-.594zm1.881 0h.594v3.22h-.594zm1.875 0h.594v3.22h-.594zm1.874 0h.594v3.22h-.594zm1.882 0h.594v3.22h-.594zm1.875 0h.594v3.22h-.594zm1.882 0h.594v3.22h-.594zm1.874 0h.594v3.22h-.594zm1.882 0h.594v3.22h-.594zm1.875 0h.594v3.22h-.594zm1.882 0h.594v3.22h-.594zm1.874 0h.594v3.22h-.594zM23.086 1.588h.626v1.656h-.625zm1.497 0h.625v1.656h-.625zm3.155 0h.625v1.656h-.625zm1.496 0h.625v1.656h-.625zm8.208 0h.624v1.656h-.624zm1.488 0h.625v1.656h-.625zm3.07 0h.625v1.656H42zm1.497 0h.625v1.656h-.625zM14.781 45.827 18.536 9.29l.621.063-3.754 36.538zM48.262 9.362l.621-.065 3.91 36.537-.621.066zM27.645 4.976h.624v4.253h-.624z"/><path d="M39.765 9.321h-.633V6.915H28.149v-.621h11.617z"/><path d="M39.153 4.884h.624v1.724h-.624zm-9.01 16.31h-3.772V15.59h4.405v4.767h-.633zm-3.147-.613h2.515v-.843h.632v-3.526h-3.147zm14.224.613h-3.757v-.843h-.725v-4.76h4.482zm-3.132-.621h2.507v-4.361h-3.232v3.526h.725z"/><path d="M30.778 16.236h-3.571v-5.603h4.235v4.031h1.056v.644h-1.72zm-2.938-.621h2.314v-.928h.701v-3.456H27.84zm12.55.62H36.74v-.927h-1.743v-.644h1.056v-4.031h4.335zm-3.024-.62h2.399V11.23h-3.086v3.433h.687z"/><path d="M37.365 20.358h-2.368v-2.115a1.22 1.22 0 0 0-.77-1.151 1.2 1.2 0 0 0-.48-.09c-.331 0-.649.13-.883.363a1.24 1.24 0 0 0-.366.878v2.115h-2.314v-5.671h7.212zm-1.743-.62h1.118v-4.43h-5.963v4.43h1.096v-1.533c0-.494.197-.968.549-1.317a1.88 1.88 0 0 1 2.65 0c.352.349.55.823.55 1.316z"/><path d="M36.68 15.285h-1.682v-2.154a1.22 1.22 0 0 0-.77-1.15 1.2 1.2 0 0 0-.48-.091c-.331 0-.65.13-.883.363a1.24 1.24 0 0 0-.367.878v2.154h-1.642V9.974h5.862zm-1.057-.62h.431v-4.063h-4.628v4.062h.432v-1.533a1.85 1.85 0 0 1 .55-1.317 1.88 1.88 0 0 1 2.042-.403 1.88 1.88 0 0 1 1.014 1.008c.095.226.143.468.143.712zm0 5.694h-3.75v-2.115c0-.494.198-.968.55-1.317a1.88 1.88 0 0 1 2.65 0c.352.349.55.823.55 1.317zm-3.086-.62h2.5v-1.534a1.22 1.22 0 0 0-.362-.882 1.23 1.23 0 0 0-.888-.36c-.332 0-.65.131-.884.364a1.24 1.24 0 0 0-.366.878z"/><path d="M35.621 15.285h-3.749V13.13c0-.494.198-.968.55-1.317a1.88 1.88 0 0 1 2.65 0c.351.35.549.823.549 1.317zm-3.086-.621h2.5V13.13a1.22 1.22 0 0 0-.362-.883 1.24 1.24 0 0 0-.888-.359c-.331 0-.65.131-.883.364a1.24 1.24 0 0 0-.367.878zm5.5 10.952h-3.031v-2.2a1.22 1.22 0 0 0-.77-1.15 1.261 1.261 0 0 0-1.362.276 1.25 1.25 0 0 0-.367.875v2.2h-2.986v-5.88h8.57v1.534h-.054zm-2.406-.59h1.774v-4.368h.062v-.261h-7.32v4.599h1.735v-1.58c0-.493.197-.967.549-1.316a1.88 1.88 0 0 1 2.65 0c.352.35.55.823.55 1.317z"/></g><defs><clipPath id="a"><path fill="#fff" d="M0 .5h67v53H0z"/></clipPath></defs></svg>