<svg xmlns="http://www.w3.org/2000/svg" width="68" height="56" fill="none"><g fill="#B8B7B7" clip-path="url(#a)"><path d="M57.64 56H10.36V45.43h.659v9.919H56.98V45.43h.66zm0-12.222h-.66V38.86H11.019v4.917h-.66V38.2h47.28z"/><path d="m41.897 43.67-.296-.593 9.456-4.692 6.498-.083.017.65-6.355.084zM18.836 55.532h-.668v-2.036l7.926-6.77.431.492-7.69 6.578zm31.249.117h-.668v-1.77l-7.69-6.67.431-.492 7.927 6.862zM25.748 53.17h3.667v.651h-3.667z"/><path d="M47.23 55.975H20.332V53.52h2.789v.652h-2.13v1.152h25.57v-1.152H32.037v-.651H47.23z"/><path d="M23.119 53.78h-1.521v-2.23h5.856v.652h-5.197v.918h.862zm22.173.367H32.034v-.651h12.59v-1.219H36.37v-.66h8.923zM25.747 53.13h3.667v.65h-3.667zm4.326-1.578h3.668v.65h-3.668zm2.916-1.628h3.659v.651h-3.66z"/><path d="M27.455 52.16h-4.006v-2.238h6.913v.66h-6.245v.918h3.338zm2.62-.66h3.667v.651h-3.668zm14.187.66H36.37v-.66h7.225v-.918h-4.318v-.66h4.985zm-14.06-3.857h3.666v.65h-3.667z"/><path d="M30.362 50.532h-4.385v-2.229h1.597v.651h-.93v.927h3.718zm11.907 0h-2.992v-.651h2.333v-.927h-5.121v-.651h5.78zm-9.279-.651h3.66v.651h-3.66zm-2.788-1.628h3.667v.651h-3.667z"/><path d="M42.27 48.913h-5.78v-.66h5.12v-.918H26.645v.918h.929v.66h-1.597v-2.238h16.292zm-21.803-3.148H9.102v-2.312h11.365zM9.77 45.081h10.04v-1.002H9.768zm49.105.684H47.508v-2.312h11.366zm-10.707-.684h10.04v-1.002h-10.04zM10.362 31.665h.659v6.144h-.66z"/><path d="M13.309 38.677h-2.95v-.86h.66v.21h1.63v-6.362h.66zm36.53-9.542h-.667v-2.947H18.827v2.822h-.66v-3.473H49.84zm-29.863 9.726h-2.95v-7.513h2.95zm-2.29-.66h1.63V32h-1.63zm10.098.61h-2.95v-8.424h2.95zm-2.29-.66h1.63V31.04h-1.63zm17.923.71h-2.949v-8.599h2.95zm-2.29-.66h1.631v-7.313h-1.63z"/><path d="M43.418 38.86H40.47v-8.598h2.95zm-2.29-.659h1.631v-7.313h-1.63zm-20.137-6.203H9.101V28.66h11.89zM9.77 31.34h10.563v-2.004H9.77z"/><path d="M45.63 30.888H23.146l.338-3.34h21.776zm-21.725-.651h20.957l-.203-2.012H24.083zm27.083 8.574h-2.957v-7.338h2.957zm-2.29-.66h1.623v-6.027h-1.623zm8.95.835h-2.95v-7.513h2.95zm-2.29-.651h1.63v-6.211h-1.63z"/><path d="M58.671 32.124h-11.89v-3.34h11.89zm-11.23-.652h10.563V29.46H47.44zm-4.2-5.284H24.836v-5.501H43.24zm-17.746-.651h17.078v-4.174H25.495z"/><path d="M42.031 21.18H26.195v-4.3h15.836zm-15.143-.652h14.518v-2.997H26.888z"/><path d="M40.884 17.373h-13.52v-3.757h13.52zm-12.853-.676h12.194v-2.421H28.03z"/><path d="M40.106 14.276H28.148v-3.34h11.958zm-11.29-.66h10.622v-2.062H28.816zm-.093-6.862H38.4v.651h-9.676z"/><path d="m43.941 9.117-19.774-.209V1.82h19.774zm-19.064-.835 18.405.192v-5.97H24.835zm-5.991 21.054h-8.527v-3.84h8.527zm-7.901-.66h7.2v-2.504h-7.2zm46.172.66h-7.951v-3.84h7.951zm-7.3-.66h6.624v-2.504h-6.625z"/><path d="M24.169 0h.659v2.146h-.66zM43.24.71h.66v2.145h-.66zM24.507 10.903h2.171v.651h-2.172zm17.078 0h2.171v.651h-2.171zm-17.577 2.78h2.172v.65h-2.172zm18.075 0h2.172v.65h-2.172zm-19.241 3.272h2.172v.651h-2.172zm20.399 0h2.172v.651H43.24zM27.904 3.907h.659V5.71h-.66zm1.656 0h.659V5.71h-.66zm1.665 0h.659V5.71h-.66zm1.656 0h.659V5.71h-.66zm1.656 0h.66V5.71h-.66zm1.656 0h.66V5.71h-.66zm1.657 0h.659V5.71h-.66zm1.656 0h.659V5.71h-.66zM27.904 40.406h.659v1.803h-.66zm1.656 0h.659v1.803h-.66zm1.665 0h.659v1.803h-.66zm1.656 0h.659v1.803h-.66zm1.656 0h.66v1.803h-.66zm1.656 0h.66v1.803h-.66zm1.657 0h.659v1.803h-.66zm1.656 0h.659v1.803h-.66zm12.422 0h.659v1.803h-.66zm1.656 0h.66v1.803h-.66zm1.656 0h.66v1.803h-.66zm-43.24 0h.66v1.803H12zm1.656 0h.66v1.803h-.66zm1.656 0h.66v1.803h-.66zM18.238 25.59l5.947-17.11.623.212-5.946 17.11zM43.258 8.89l.622-.215 5.964 16.91-.622.214zM42.252 48.612h-.668V47.21H21.6v-4.09h5.07v3.439h14.94v-3.44h4.572v4.09h-3.93zm0-2.053h3.236v-2.78h-3.236zm-20.02 0h3.753v-2.78h-3.727zM0 55.349h68v.652H0zm37.85-16.554h-6.956v-6.236h6.955zm-6.296-.66h5.628v-4.908h-5.628zm4.783-11.946h-4.623V22.59h4.623zm-3.972-.651h3.312v-2.296h-3.295z"/><path d="m26.179 43.67-9.313-4.634-6.354-.083.008-.651 6.507.083 9.456 4.692zm-3.313.851h.66v1.219h-.66zm1.656 0h.66v1.219h-.66zm18.22 0h.659v1.219h-.66zm1.656 0h.659v1.219h-.66z"/></g><defs><clipPath id="a"><path fill="#fff" d="M0 0h68v56H0z"/></clipPath></defs></svg>