<svg xmlns="http://www.w3.org/2000/svg" width="70" height="53" fill="none"><path fill="#fff" d="M41.692 4.236H26.828v-2.49L29.03.74c-.105-.12 10.493 0 10.493 0l2.17.843z"/><path fill="#B8B7B7" d="M0 51.744h69.789v.723H0z"/><path fill="#B8B7B7" d="M51.533 52.5H16.984V18.369h34.55zm-33.858-.731h33.127V19.092H17.675z"/><path fill="#B8B7B7" d="M51.533 34.084h-7.866v-.723h7.135v-.94h-7.135v-.723h7.866zm-26.69 0h-7.859v-2.386h7.858v.723h-7.126v.94h7.126z"/><path fill="#B8B7B7" d="M44.029 52.5H24.48V25.777H44.03zm-18.817-.723h18.094V26.508H25.212z"/><path fill="#B8B7B7" d="M41.457 52.5H27.059V35.893a7 7 0 0 1 .37-2.282c.201-.63.494-1.229.867-1.776A7.23 7.23 0 0 1 39.368 30.8q.47.481.851 1.036a7.13 7.13 0 0 1 1.238 4.034zm-13.66-.723h12.929V35.893c0-.696-.112-1.388-.33-2.05a6.3 6.3 0 0 0-.803-1.606 6.43 6.43 0 0 0-10.719 0 6.2 6.2 0 0 0-.803 1.607 6.3 6.3 0 0 0-.337 2.049zm25.816-32.685h-38.71v-4.057h38.71zm-37.987-.723h37.256v-2.603H15.626zm5.551 8.557a2.53 2.53 0 1 1 2.531-2.53 2.54 2.54 0 0 1-2.53 2.53m0-4.33a1.808 1.808 0 1 0 1.8 1.8 1.8 1.8 0 0 0-1.8-1.8m26.49 4.33a2.53 2.53 0 1 1 0-5.061 2.53 2.53 0 0 1 0 5.061m0-4.33a1.808 1.808 0 1 0 1.8 1.8 1.8 1.8 0 0 0-1.8-1.8"/><path fill="#B8B7B7" d="M51.613 15.766H16.87V9.04h34.71zm-33.987-.731h33.256V9.764H17.626z"/><path fill="#B8B7B7" d="M47.614 9.763H20.89v-5.72h26.723zM21.63 9.04h25.26V4.766H21.63z"/><path fill="#B8B7B7" d="M42.055 4.782H26.468V1.697l2.41-1.109C29.224.5 30.316.5 34.302.5l5.23.056h.064l2.459.956zM27.191 4.06h14.133V2.01l-1.864-.707c-3.857-.048-9.642-.088-10.3 0l-1.969.86zm-7.922 7.978h.723v1.27h-.723zm1.816 0h.723v1.27h-.723zm1.816 0h.723v1.27H22.9zm1.815 0h.723v1.27h-.723zm1.816 0h.723v1.27h-.723zm-3.085-5.632h.723v1.27h-.723zm1.816 0h.723v1.27h-.723zm1.815 0h.724v1.27h-.724zm1.824 0h.723v1.27h-.723zm1.816 0h.723v1.27h-.723zM19.012 37.668h.723v14.446h-.723zm29.808 0h.723v14.446h-.723zM22.45 20.032h23.63v.723H22.45z"/></svg>