<svg xmlns="http://www.w3.org/2000/svg" width="67" height="55" fill="none"><g fill="#B8B7B7" clip-path="url(#a)"><path d="M20.836 33.974h.571v3.161h-.571z"/><path d="M49.012 54.862H20.844V20.01c0-.077.03-.152.085-.207a.29.29 0 0 1 .41 0c.054.055.084.13.084.207v34.275h27.018V20.027a.288.288 0 0 1 .4-.27.28.28 0 0 1 .152.158q.02.055.019.112z"/><path d="m21.296 20.262-.37-.463.209-.162.12-.09a81 81 0 0 1 2.753-1.934C35.646 9.753 41.851 9.2 42.31 9.168h.508l.088 4.462 3.71-.146-.08-9.753V0h.58v3.65l.08 10.338-4.83.187-.112-4.422a18 18 0 0 0-1.98.431c-.16 0-.314.081-.499.138q-1.573.446-3.09 1.057h-.073l-.233.09a44 44 0 0 0-3.099 1.389q-.299.135-.539.268a61 61 0 0 0-3.54 1.91c-.403.22-.806.447-1.087.634-.894.537-1.82 1.114-2.753 1.715h-.04l-.523.35-.21.138a390 390 0 0 0-3.291 2.39"/><path d="M49.012 20.32h-.571V.576h-1.9V0h2.471zm-28.474-2.317-.37-.44a63.1 63.1 0 0 1 15.597-9.435l.217.536a63.2 63.2 0 0 0-15.444 9.339"/><path d="M42.148 15.873h7.694v.577h-7.694zm.193 2.235h7.694v.577H42.34zM23.017 13.8h.572v6.405h-.572zm3.84-1.958h.57v6.404h-.57zm3.887-1.984h.571v6.405h-.572zm-8.04 19.604h25.101v.577H22.704zm0-3.486h25.101v.577H22.704zm0-4.097h25.101v.577H22.704zM0 54.423h67v.576H0z"/><path d="M31.476 54.862h-.571V49.8a.294.294 0 0 1 .29-.293H35v-4.064a.3.3 0 0 1 .088-.201.3.3 0 0 1 .202-.083h4.145v-4.633a.28.28 0 0 1 .282-.285h4.152v-4.063c0-.078.03-.152.085-.207a.3.3 0 0 1 .205-.086h4.708v.577H44.44v4.064a.286.286 0 0 1-.281.293h-4.145v4.624a.294.294 0 0 1-.29.293H35.58v4.064a.3.3 0 0 1-.087.202.3.3 0 0 1-.202.082h-3.815zm-6.921-34.705h.571V51.53h-.571zm2.865 0h.571v28.918h-.571zm2.857 0h.571v26.31h-.571zm2.865 0h.571v25.01h-.571z"/><path d="M35.001 53.553h-2.575v-2.885H35zm-2.004-.577h1.433v-1.731h-1.433zm5.73.577h-2.575v-2.885h2.575zm-2.004-.577h1.433v-1.731h-1.433zm5.868.577h-2.576v-2.885h2.575zm-2.005-.577h1.433v-1.731h-1.432zm6.157.577h-2.575v-2.885h2.575zm-2.004-.577h1.433v-1.731h-1.433zm-5.867-3.617h-2.575v-2.885h2.575zm-2.004-.593h1.433V47.05h-1.433zm5.722.593h-2.575v-2.885h2.575zm-2.004-.593h1.433V47.05h-1.432zm6.157.593h-2.575v-2.885h2.575zm-2.004-.593h1.433V47.05h-1.433zm-1.432-3.885H40.73v-2.894h2.576zm-2.004-.577h1.432v-1.74h-1.432zm5.44.577h-2.575v-2.894h2.575zm-2.004-.577h1.433v-1.74h-1.433z"/><path d="M56.836 55H11.598V44.88h9.529v.578h-8.958v8.965h44.095v-8.965h-7.533v-.577h8.105z"/><path d="M55.53 48.205h-6.784a.29.29 0 0 1-.241-.288.294.294 0 0 1 .241-.289h6.785a.29.29 0 0 1 .31.166.3.3 0 0 1-.075.346.3.3 0 0 1-.235.065M43.733 31.706h.572V33.3h-.572zm1.425 0h.571V33.3h-.571zm1.432 0h.572V33.3h-.572zm-7.154 0h.571V33.3h-.571zm1.432 0h.572V33.3h-.572zm1.433 0h.571V33.3H42.3zm1.432-8.388h.572v1.593h-.572zm1.425 0h.571v1.593h-.571zm1.432 0h.572v1.593h-.572zm-7.154 0h.571v1.593h-.571zm1.432 0h.572v1.593h-.572zm1.433 0h.571v1.593H42.3zM17.528 47.466h.571v1.593h-.571zm1.432 0h.572v1.593h-.572zm-5.722 0h.572v1.593h-.572zm1.433 0h.571v1.593h-.571zm1.424 0h.572v1.593h-.572z"/></g><defs><clipPath id="a"><path fill="#fff" d="M0 0h67v55H0z"/></clipPath></defs></svg>