<svg xmlns="http://www.w3.org/2000/svg" width="61" height="52" fill="none"><g fill="#B8B7B7" clip-path="url(#a)"><path d="M19.387 12.61H11.37V8.03h8.016zm-7.39-.617h6.763V8.647h-6.763zm24.83 35.573h.626v3.985h-.626zm-13.84-3.89h.627v7.875h-.626zm-5.002-3.919h.626v11.456h-.626zm23.092-.345h.626v11.86h-.626zM26.47 43.713c-.26-.013-.509-.1-.718-.252a1.3 1.3 0 0 1-.46-.6 1.29 1.29 0 0 1 .33-1.403 1.33 1.33 0 0 1 1.437-.255c.239.1.442.268.585.481.143.214.22.464.22.72-.01.356-.162.693-.423.938-.261.246-.61.379-.971.371m0-2a.693.693 0 0 0-.637.851.705.705 0 0 0 1.382-.16.73.73 0 0 0-.233-.491.75.75 0 0 0-.512-.2m7.493 2a1.34 1.34 0 0 1-.72-.248 1.3 1.3 0 0 1-.462-.6 1.29 1.29 0 0 1 .324-1.405 1.33 1.33 0 0 1 1.439-.258c.239.1.443.268.586.482s.22.464.22.72c-.01.355-.16.69-.42.936-.26.245-.607.38-.967.373m0-2a.7.7 0 0 0-.376.137.69.69 0 0 0-.26.714.704.704 0 0 0 1.382-.16.73.73 0 0 0-.234-.491.75.75 0 0 0-.512-.2"/><path d="M.5 51.383h60V52H.5z"/><path d="M46.73 51.897H12.29V37.5h34.44zm-33.844-.618h33.247V38.14H12.915z"/><path d="M37.395 51.912H22.982v-12.5h14.413zm-13.78-.618h13.153v-11.28H23.616zm24.121-13.132H11.074v-7.72h36.662zm-36.05-.618H47.11V31.06H11.686z"/><path d="M34.129 52h-7.881v-5.676a1.53 1.53 0 0 1 .196-.762c.13-.233.32-.429.55-.57l3.243-2 3.154 2c.227.141.415.336.545.568s.2.492.2.756zm-7.255-.617h6.621v-5.06a.95.95 0 0 0-.44-.8l-2.826-1.788-2.885 1.765a.96.96 0 0 0-.455.81zm-7.188-13.221h-8.612v-7.72h8.612zm-8-.618h7.359V31.06h-7.36zm36.05.618h-8.619v-7.72h8.62zm-7.993-.618h7.367V31.06h-7.367z"/><path d="M18.513 31.059h-6.27v-9.736h6.27zm-5.645-.618h5.019v-8.5h-5.019zm33.688.617h-6.264v-9.735h6.264zm-5.637-.617h5.01v-8.5h-5.01z"/><path d="M19.372 21.942h-7.985v-4.64h7.985zm-7.359-.618h6.71v-3.397h-6.71zm35.41.617h-7.994v-4.64h7.993zm-7.367-.617h6.71v-3.397h-6.71zm.783 9.735H17.963v-6.617H40.84zm-22.25-.617h21.623V25H18.59z"/><path d="M17.65 17.926h-4.54v-5.882h4.54zm-3.914-.625h3.288V12.67h-3.288zm31.964.625h-4.548v-5.882H45.7zm-3.922-.625h3.289V12.67h-3.289zm-15.277 7.574H21.96v-5.882h4.54zm-3.915-.61h3.266v-4.633h-3.266zm14.256.61h-4.54v-5.882h4.54zm-3.914-.61h3.288v-4.633h-3.288z"/><path d="M45.699 17.927h-4.548v-5.883h4.548zm-3.922-.625h3.288v-4.633h-3.288zM18.484 8.655a.32.32 0 0 1-.274-.173.31.31 0 0 1 .02-.32c.454-.602.7-1.331.701-2.08 0-1.471-2.438-3.229-3.556-3.868-1.119.64-3.55 2.36-3.55 3.867-.002.75.245 1.481.701 2.081a.307.307 0 0 1-.067.434.32.32 0 0 1-.44-.066 4.06 4.06 0 0 1-.82-2.449c0-2.264 3.863-4.412 4.027-4.5a.32.32 0 0 1 .305 0c.164.096 4.027 2.206 4.027 4.5a4.06 4.06 0 0 1-.82 2.449.31.31 0 0 1-.254.125"/><path d="M18.485 8.654h-6.21a.32.32 0 0 1-.222-.09.306.306 0 0 1 0-.437.32.32 0 0 1 .221-.09h6.211c.083 0 .163.032.221.09a.306.306 0 0 1 0 .437.32.32 0 0 1-.22.09m-3.072-6.492a.32.32 0 0 1-.221-.09.3.3 0 0 1-.092-.22V.31c0-.082.033-.16.092-.219a.315.315 0 0 1 .443 0 .3.3 0 0 1 .091.219v1.544c0 .082-.033.16-.091.218a.32.32 0 0 1-.222.09m31.115 6.492a.32.32 0 0 1-.307-.267.3.3 0 0 1 .06-.225 3.46 3.46 0 0 0 .694-2.081c0-1.47-2.43-3.228-3.549-3.868-1.118.64-3.55 2.36-3.55 3.868a3.46 3.46 0 0 0 .694 2.08.3.3 0 0 1 .016.34.324.324 0 0 1-.523.028 4.06 4.06 0 0 1-.79-2.448c0-2.265 3.862-4.412 4.026-4.5a.33.33 0 0 1 .306 0c.164.095 4.026 2.206 4.026 4.5a4.06 4.06 0 0 1-.82 2.448.31.31 0 0 1-.283.125"/><path d="M46.525 8.654h-6.21a.32.32 0 0 1-.222-.09.306.306 0 0 1 0-.437.32.32 0 0 1 .221-.09h6.211c.084 0 .163.032.222.09a.306.306 0 0 1 0 .437.32.32 0 0 1-.222.09m-3.101-6.492a.32.32 0 0 1-.29-.19.3.3 0 0 1-.023-.12V.31c0-.082.033-.16.091-.219a.315.315 0 0 1 .443 0 .3.3 0 0 1 .092.219v1.544c0 .082-.033.16-.092.218a.32.32 0 0 1-.221.09M27.4 19.492h-6.337v-3.676H27.4zm-5.711-.617h5.085v-2.448h-5.085z"/><path d="M26.86 16.375a.3.3 0 0 1-.187-.066.31.31 0 0 1-.12-.325.3.3 0 0 1 .053-.11 2.84 2.84 0 0 0 .581-1.727c0-1.243-2.005-2.662-2.982-3.213-.947.551-2.983 1.978-2.983 3.213a2.84 2.84 0 0 0 .575 1.728.308.308 0 0 1-.17.487.32.32 0 0 1-.33-.112 3.47 3.47 0 0 1-.664-2.103c0-1.941 3.296-3.765 3.43-3.838a.33.33 0 0 1 .299-.015c.141.074 3.43 1.897 3.43 3.838-.001.757-.247 1.494-.702 2.103a.33.33 0 0 1-.23.14"/><path d="M26.858 16.375h-5.22a.33.33 0 0 1-.257-.073.32.32 0 0 1-.111-.24.31.31 0 0 1 .111-.24.32.32 0 0 1 .258-.072h5.22a.313.313 0 0 1 .195.518.32.32 0 0 1-.196.107m-2.624-5.493a.3.3 0 0 1-.224-.088.3.3 0 0 1-.09-.22V9.271c0-.082.033-.16.092-.219a.315.315 0 0 1 .443 0 .3.3 0 0 1 .092.219v1.301c0 .082-.033.16-.092.219a.32.32 0 0 1-.221.09m13.548 8.61h-6.338v-3.676h6.338zm-5.712-.617h5.04v-2.449h-5.077z"/><path d="M37.199 16.375a.3.3 0 0 1-.186-.066.31.31 0 0 1-.126-.203.3.3 0 0 1 .058-.231c.38-.498.584-1.105.582-1.728 0-1.243-2.006-2.662-2.983-3.213-.954.551-2.982 1.978-2.982 3.213-.002.623.203 1.23.582 1.728a.307.307 0 0 1-.067.434.31.31 0 0 1-.343.02.3.3 0 0 1-.09-.08 3.48 3.48 0 0 1-.746-2.102c0-1.941 3.289-3.765 3.43-3.838a.32.32 0 0 1 .306 0c.142.073 3.43 1.897 3.43 3.838 0 .757-.246 1.493-.701 2.103a.33.33 0 0 1-.164.125"/><path d="M37.198 16.375h-5.22a.32.32 0 0 1-.194-.107.31.31 0 0 1 0-.412.32.32 0 0 1 .194-.106h5.22a.313.313 0 0 1 .195.518.32.32 0 0 1-.195.107m-2.625-5.493a.3.3 0 0 1-.224-.088.3.3 0 0 1-.089-.22V9.271c0-.082.033-.16.092-.219a.315.315 0 0 1 .51.1.3.3 0 0 1 .024.119v1.301a.3.3 0 0 1-.091.219.31.31 0 0 1-.222.09m-7.173 8.61h-6.337v-3.676H27.4zm-5.711-.617h5.085v-2.449h-5.085z"/><path d="M26.86 16.375a.3.3 0 0 1-.187-.066.31.31 0 0 1-.12-.325.3.3 0 0 1 .053-.11 2.84 2.84 0 0 0 .581-1.727c0-1.243-2.005-2.662-2.982-3.213-.947.551-2.983 1.978-2.983 3.213a2.84 2.84 0 0 0 .575 1.728.308.308 0 0 1-.17.487.32.32 0 0 1-.33-.112 3.47 3.47 0 0 1-.664-2.103c0-1.941 3.296-3.765 3.43-3.838a.33.33 0 0 1 .299-.015c.141.074 3.43 1.897 3.43 3.838-.001.757-.247 1.494-.702 2.103a.33.33 0 0 1-.23.14"/><path d="M26.86 16.375h-5.22a.32.32 0 0 1-.34-.18.31.31 0 0 1 .082-.373.32.32 0 0 1 .258-.072h5.22c.075.011.144.05.194.107a.31.31 0 0 1 0 .411.32.32 0 0 1-.195.107m-2.625-5.493a.31.31 0 0 1-.292-.19.3.3 0 0 1-.021-.119V9.272c0-.082.032-.16.091-.218a.316.316 0 0 1 .443 0 .3.3 0 0 1 .092.218v1.301c0 .082-.033.16-.092.219a.32.32 0 0 1-.221.09m23.24 1.72h-8.06V8.016h8.06zm-7.456-.617h6.77V8.632h-6.77zm-18.61 14.28h15.978v.617H21.41zm0 6.338h15.978v.617H21.41zm2.2-4.949h.626v1.081h-.627zm1.565 0h.627v1.081h-.627zm1.566 0h.626v1.081h-.626zm1.566 0h.626v1.081h-.626zm1.566 0h.626v1.081h-.626zm1.565 0h.627v1.081h-.627zm1.566 0h.627v1.081h-.627zm1.573 0h.627v1.081h-.627zm-13.652 6.581h.626v1.61h-.626zm2.334 0h.626v1.61h-.626zm2.334 0h.626v1.61h-.626zm2.334 0h.626v1.61h-.626zm2.333 0h.627v1.61h-.627zm2.327 0h.626v1.61h-.626zm2.333 0h.627v1.61h-.627zm2.334 0h.627v1.61h-.627zm-23.517-11.83h.627v8.448h-.627zm.023 15.316h.626v2.911h-.626zM44.44 22.404h.626v8.449h-.626zm.03 15.317h.626v2.911h-.626zM12.715 18.699h.626v1.698h-.626zm1.566 0h.626v1.698h-.626zm1.565 0h.627v1.698h-.627zm1.574 0h.626v1.698h-.626zm23.345 0h.626v1.698h-.626zm1.566 0h.626v1.698h-.626zm1.566 0h.626v1.698h-.626zm1.566 0h.626v1.698h-.626zM12.715 33.375h.626v1.699h-.626zm1.566 0h.626v1.699h-.626zm1.565 0h.627v1.699h-.627zm1.574 0h.626v1.699h-.626zm23.345 0h.626v1.699h-.626zm1.566 0h.626v1.699h-.626zm1.566 0h.626v1.699h-.626zm1.566 0h.626v1.699h-.626z"/><path d="M40.765 9.427h.626v1.698h-.626zm1.566 0h.626v1.698h-.626zm1.566 0h.626v1.698h-.626zm1.566 0h.626v1.698h-.626zM32.69 16.684h.626v1.699h-.626zm1.573 0h.627v1.699h-.627zm1.566 0h.626v1.699h-.626zm-13.473 0h.626v1.699h-.626zm1.566 0h.626v1.699h-.626zm1.565 0h.627v1.699h-.627zM12.715 9.427h.626v1.698h-.626zm1.566 0h.626v1.698h-.626zm1.565 0h.627v1.698h-.627zm1.574 0h.626v1.698h-.626z"/></g><defs><clipPath id="a"><path fill="#fff" d="M.5 0h60v52H.5z"/></clipPath></defs></svg>