<svg xmlns="http://www.w3.org/2000/svg" width="72" height="50" fill="none"><g fill="#B8B7B7" clip-path="url(#a)"><path d="M0 48.815h72v.685H0zM4.728 31.11h.682v13.213h-.682zm42.06 15.39-.177-33.521H65.78v30.086h-.682V13.665H47.302l.168 32.828z"/><path d="M65.097 39.463h.682v4.95h-.682zm-17.635 9.956H22.957v-5.385h24.505zm-23.823-.685h23.133V44.75H23.639zm1.59-29.37h.593v4.41h-.594zm2.776 0h.594v4.41h-.594zm2.77 0h.594v4.41h-.594zm2.777 0h.594v4.41h-.594zm2.777 0h.594v4.41h-.594zm2.77 0h.593v4.41h-.594zm-32.1-.032h.594v4.41H7zm2.77 0h.594v4.41h-.594zm2.777 0h.594v4.41h-.594zm2.777 0h.594v4.41h-.594zm2.77 0h.593v4.41h-.594zm2.777 0h.594v4.41h-.594zm28.174 0h.594v4.41h-.594zm2.777 0h.594v4.41h-.594zm2.777 0h.594v4.41h-.594zm2.77 0h.593v4.41h-.594zm2.777 0h.594v4.41h-.594zm2.777 0h.594v4.41h-.594zm-21.046.032h.594v4.41h-.594zm2.777 0h.594v4.41h-.594zm-15.155-5.651h-3.01V8.505a1.53 1.53 0 0 1 .881-1.58 1.51 1.51 0 0 1 1.763.381 1.53 1.53 0 0 1 .366 1.199zm-2.327-.685h1.605V8.505a.93.93 0 0 0-.803-.992.93.93 0 0 0-.802.992zm5.947.62h-3.01V8.433a1.52 1.52 0 0 1 .903-1.5 1.5 1.5 0 0 1 1.708.358 1.52 1.52 0 0 1 .4 1.142zm-2.327-.685h1.605v-4.53a.81.81 0 0 0-.803-.807.8.8 0 0 0-.802.806zm5.948.613h-3.026V8.368a1.53 1.53 0 0 1 .88-1.58 1.512 1.512 0 0 1 2.075.94c.063.208.082.425.054.64zm-2.328-.685h1.645V8.368a.92.92 0 0 0-.802-.984.92.92 0 0 0-.803.984zm5.948.62h-3.01V8.295a1.52 1.52 0 0 1 .4-1.142 1.51 1.51 0 0 1 1.707-.358 1.5 1.5 0 0 1 .821.887c.069.197.097.406.082.613zm-2.328-.685h1.605v-4.53a.81.81 0 0 0-.803-.807.8.8 0 0 0-.802.806zm5.948.613h-3.042V8.23a1.53 1.53 0 0 1 .366-1.2 1.52 1.52 0 0 1 1.139-.515 1.51 1.51 0 0 1 1.138.516 1.53 1.53 0 0 1 .367 1.199zm-2.328-.685h1.605V8.23a.914.914 0 0 0-.802-.984.914.914 0 0 0-.803.984zm-35.069 3.41h9.817v.685H6.582zm47.326 0h10.01v.685h-10.01zM7.609 26.749h12.948v.685H7.609zm42.51.089h12.947v.685H50.12z"/><path d="M28.125 45.598h14.93v.685h-14.93zm-1.445 1.653h17.98v.685H26.68zM46.522 2.709h.682v.089h-.682z"/><path d="M52.962 5.095h-3.179V4.41h2.497V3.136H46.78v-.685h6.18z"/><path d="M50.297 5.095h-32.79V2.451h5.764v.685h-5.08V4.41h32.106z"/><path d="M48.346 3.136H22.123V.5h26.223zm-25.54-.685h24.882V1.185H22.805zm-4.408 13.713h2.08v.685h-2.08zm30.63 0h2.08v.685h-2.08zm-8.58 28.555H30.013V29.257c0-2.46 2.32-4.467 5.177-4.467 2.858 0 5.242 2.008 5.242 4.467zm-9.736-.685h9.054V29.257c0-2.08-2.04-3.765-4.56-3.765s-4.495 1.7-4.495 3.78z"/><path d="M38.8 44.72h-7.128V33.367a3.6 3.6 0 0 1 1.125-2.38 3.564 3.564 0 0 1 4.879 0 3.6 3.6 0 0 1 1.124 2.38zm-6.421-.686h5.755V33.368a2.9 2.9 0 0 0-.93-1.879 2.883 2.883 0 0 0-3.896 0 2.9 2.9 0 0 0-.93 1.88zm-5.691-13.35a1.7 1.7 0 0 1-1.58-1.06 1.73 1.73 0 0 1 .37-1.872 1.707 1.707 0 0 1 2.92 1.215 1.73 1.73 0 0 1-.504 1.212c-.32.321-.753.503-1.206.505m0-2.75a1.02 1.02 0 0 0-.95.638 1.035 1.035 0 0 0 .75 1.407 1.02 1.02 0 0 0 1.054-.439c.113-.17.173-.37.173-.573a1.03 1.03 0 0 0-.627-.978 1 1 0 0 0-.4-.078zm17.089 2.75a1.7 1.7 0 0 1-1.58-1.06 1.72 1.72 0 0 1 .37-1.872 1.707 1.707 0 0 1 2.92 1.215 1.73 1.73 0 0 1-.504 1.212c-.32.321-.753.503-1.206.505m0-2.75a1.02 1.02 0 0 0-.95.638 1.036 1.036 0 0 0 .75 1.407 1.02 1.02 0 0 0 1.054-.439c.113-.17.173-.37.173-.573a1.04 1.04 0 0 0-.628-.976 1 1 0 0 0-.4-.08zM23.637 45.64h-.682V13.826l-17.538-.169v21.34h-.69V12.964l18.91.177z"/><path d="M23.64 49.484H3.477v-5.45H23.64zM4.167 48.79H22.95V44.68H4.166zm62.873.71H46.805v-5.515H67.04zm-19.553-.686h18.871V44.68h-18.87z"/><path d="M7.232 45.792h.683v1.894h-.683zm1.71 0h.682v1.894h-.682zm1.71 0h.682v1.894h-.682zm1.71 0h.682v1.894h-.683zm1.71 0h.681v1.894h-.682zm1.709 0h.682v1.894h-.682zm1.71 0h.682v1.894h-.682zm1.71 0h.681v1.894H19.2zm31.4.008h.682v1.894h-.682zm1.71 0h.682v1.894h-.682zm1.71 0h.682v1.894h-.683zm1.709 0h.682v1.894h-.682zm1.702 0h.682v1.894h-.682zm1.71 0h.682v1.894h-.683zm1.71 0h.681v1.894h-.682zm1.709 0h.682v1.894h-.682zM25.252 13.714H3.211v-5.83h22.041zm-21.359-.686h20.67V8.562H3.892zm63.323.685H45.175V7.885h22.041zm-21.359-.685h20.677V8.562H45.857z"/><path d="M19.216 4.418h.682v4.103h-.682zm31.353 0h.682v4.103h-.682zM7.906 9.852h.683v1.894h-.683zm1.71 0h.682v1.894h-.682zm1.71 0h.682v1.894h-.682zm1.71 0h.682v1.894h-.683zm1.701 0h.682v1.894h-.682zm1.71 0h.682v1.894h-.682zm1.71 0h.682v1.894h-.683zm1.71 0h.681v1.894h-.682zm30.003 0h.682v1.894h-.682zm1.71 0h.682v1.894h-.682zm1.71 0h.682v1.894h-.683zm1.71 0h.681v1.894H55zm1.709 0h.682v1.894h-.682zm1.71 0h.682v1.894h-.682zm1.71 0h.682v1.894h-.683zm1.709 0h.682v1.894h-.682zm-38.649 6.99h23.583v.685H23.189z"/></g><defs><clipPath id="a"><path fill="#fff" d="M0 .5h72v49H0z"/></clipPath></defs></svg>